<svg xmlns="http://www.w3.org/2000/svg" viewBox="0 0 48 48"><path d="M24 0A24 24 0 0 0 0 24a24 24 0 0 0 24 24 24 24 0 0 0 24-24A24 24 0 0 0 24 0zm0 16.035c.511 0 .918.355.99.86l.086.605H26a.5.5 0 0 1 0 1h-.781l.258 1.799c.433.169.834.402 1.195.701H29.5a.5.5 0 0 1 0 1h-1.924c.398.584.696 1.257.832 2h8.45c.63 0 1.142.513 1.142 1.143a1.994 1.994 0 0 1-1.8 1.99l-2.932.293c.136.249.232.523.232.824 0 .965-.785 1.75-1.75 1.75S30 29.215 30 28.25c0-.173.028-.343.078-.506l-2.498.25C26.758 29.205 25.466 30 24 30c-1.466 0-2.758-.796-3.58-2.006l-2.5-.25c.049.163.08.332.08.506 0 .965-.785 1.75-1.75 1.75s-1.75-.785-1.75-1.75c0-.298.095-.573.232-.824l-2.931-.293A1.993 1.993 0 0 1 10 25.143c0-.63.513-1.144 1.143-1.143h8.449a5.218 5.218 0 0 1 .832-2H18.5a.5.5 0 0 1 0-1h2.826a4.362 4.362 0 0 1 1.197-.701l.256-1.799H22a.5.5 0 0 1 0-1h.924l.086-.605a.981.981 0 0 1 .99-.86zm0 1L23.576 20h.848L24 17.035zM24 21c-1.791 0-3.256 1.553-3.459 3.54l.002.009-.012.088c-.01.122-.031.239-.031.363 0 .319.039.635.11.947.004.025.015.05.02.074.076.304.177.604.32.897l.001.008C21.55 28.155 22.685 29 24 29s2.45-.844 3.049-2.074c0-.002 0-.005.002-.008a4.53 4.53 0 0 0 .318-.897c.006-.025.017-.049.022-.074.07-.313.109-.628.109-.947 0-.124-.021-.242-.031-.363l-.012-.088c-.001-.004.002-.006.002-.01C27.256 22.552 25.791 21 24 21zm-.78 1h1.56a1 1 0 0 1 .949.684l.334 1a1 1 0 0 1-.95 1.316H22.89a1 1 0 0 1-.95-1.316l.332-1a1 1 0 0 1 .95-.684zm-12.077 3a.142.142 0 0 0-.143.143c0 .516.387.942.9.994l7.952.795A5.454 5.454 0 0 1 19.5 25h-8.357zM28.5 25a5.46 5.46 0 0 1-.352 1.932l7.952-.795a.997.997 0 0 0 .9-.994.143.143 0 0 0-.143-.143H28.5zM24 26.5a1 1 0 0 1 1 1 1 1 0 0 1-1 1 1 1 0 0 1-1-1 1 1 0 0 1 1-1zm-8.004 1.05a.748.748 0 0 0-.496.7c0 .407.344.75.75.75a.76.76 0 0 0 .75-.75.748.748 0 0 0-.363-.635l-.64-.064zm16.002 0-.637.065a.754.754 0 0 0-.361.635c0 .407.344.75.75.75a.76.76 0 0 0 .75-.75.756.756 0 0 0-.502-.7z" fill="#2563eb"/></svg>